<?xml version="1.0" encoding="UTF-8" standalone="no"?>
<!-- Created with Inkscape (http://www.inkscape.org/) -->

<svg
   xmlns:dc="http://purl.org/dc/elements/1.1/"
   xmlns:cc="http://creativecommons.org/ns#"
   xmlns:rdf="http://www.w3.org/1999/02/22-rdf-syntax-ns#"
   xmlns:svg="http://www.w3.org/2000/svg"
   xmlns="http://www.w3.org/2000/svg"
   xmlns:sodipodi="http://sodipodi.sourceforge.net/DTD/sodipodi-0.dtd"
   xmlns:inkscape="http://www.inkscape.org/namespaces/inkscape"
   width="118.44392"
   height="219.96484"
   viewBox="0 0 31.338286 58.199033"
   version="1.1"
   id="svg8"
   inkscape:version="0.92.1 r15371"
   sodipodi:docname="cowbell.svg">
  <defs
     id="defs2" />
  <sodipodi:namedview
     id="base"
     pagecolor="#ffffff"
     bordercolor="#666666"
     borderopacity="1.0"
     inkscape:pageopacity="0.0"
     inkscape:pageshadow="2"
     inkscape:zoom="3.959798"
     inkscape:cx="43.074455"
     inkscape:cy="106.48109"
     inkscape:document-units="pt"
     inkscape:current-layer="layer1"
     showgrid="false"
     units="px"
     fit-margin-top="0"
     fit-margin-left="0"
     fit-margin-right="0"
     fit-margin-bottom="0"
     inkscape:window-width="1337"
     inkscape:window-height="1190"
     inkscape:window-x="15"
     inkscape:window-y="60"
     inkscape:window-maximized="0" />
  <metadata
     id="metadata5">
    <rdf:RDF>
      <cc:Work
         rdf:about="">
        <dc:format>image/svg+xml</dc:format>
        <dc:type
           rdf:resource="http://purl.org/dc/dcmitype/StillImage" />
        <dc:title />
      </cc:Work>
    </rdf:RDF>
  </metadata>
  <g
     inkscape:label="Layer 1"
     inkscape:groupmode="layer"
     id="layer1"
     transform="translate(0,-238.80093)">
    <path
       style="fill:#000000;fill-opacity:1;stroke:none;stroke-width:0.048474px;stroke-linecap:butt;stroke-linejoin:miter;stroke-opacity:1"
       d="m 15.669143,238.80093 c -6.8447539,0 -10.1727999,4.3141 -10.583333,8.20209 l -4.49791658,42.59791 c -0.1593322,1.50897 -0.5291667,3.70417 -0.5291667,3.70417 -0.124725,0.21603 -0.094462,0.52916 0.5291667,0.52916 H 10.377477 c 0,0 1.026515,3.1657 5.291666,3.1657 4.265152,0 5.291667,-3.1657 5.291667,-3.1657 h 9.789583 c 0.623628,0 0.653891,-0.31313 0.529167,-0.52916 0,0 -0.369835,-2.1952 -0.529167,-3.70417 l -4.497917,-42.59791 c -0.38754,-3.67023 -3.738578,-8.20209 -10.583333,-8.20209 z m 0,1.01131 c 6.084554,0 9.084921,4.02672 9.407695,7.29154 l 0.118855,1.53634 H 6.1684313 l 0.092501,-1.53634 c 0.1882389,-3.11722 3.3236578,-7.29154 9.4082107,-7.29154 z"
       id="path3680"
       inkscape:connector-curvature="0" />
  </g>
</svg>
