<?xml version="1.0" encoding="utf-8"?>
<!-- Generator: Adobe Illustrator 15.0.2, SVG Export Plug-In . SVG Version: 6.00 Build 0)  -->
<!DOCTYPE svg PUBLIC "-//W3C//DTD SVG 1.1//EN" "http://www.w3.org/Graphics/SVG/1.1/DTD/svg11.dtd">
<svg version="1.1" id="Layer_1" xmlns="http://www.w3.org/2000/svg" xmlns:xlink="http://www.w3.org/1999/xlink" x="0px" y="0px"
	 width="193.504px" height="67.148px" viewBox="0 0 193.504 67.148" enable-background="new 0 0 193.504 67.148"
	 xml:space="preserve">
<g>
	<path d="M45.747,63.899c0.24-3.489,0.195-7.205-0.136-11.146c-0.333-3.94-0.649-7.762-0.951-11.462
		c-0.303-3.7-0.452-7.069-0.452-10.108c0-3.038,0.482-5.43,1.448-7.175c-2.233,3.19-4.255,6.168-6.066,8.935
		c-1.811,2.768-3.531,5.582-5.16,8.438c-1.63,2.859-3.215,5.867-4.754,9.025c-1.539,3.159-3.154,6.665-4.844,10.515
		c-0.905,2.107-1.494,3.655-1.766,4.648s-0.679,1.489-1.223,1.489c-0.483,0-0.785-0.226-0.905-0.677
		c-0.121-0.451,0.03-1.278,0.453-2.482c3.078-8.062,5.115-15.312,6.111-21.751c0.996-6.438,1.146-11.913,0.453-16.426
		c-0.695-4.513-2.144-7.972-4.347-10.379c-2.204-2.406-4.935-3.61-8.193-3.61c-2.234,0-4.241,0.451-6.021,1.354
		c-1.781,0.903-3.29,2.166-4.527,3.791c-1.237,1.625-2.188,3.551-2.852,5.776c-0.665,2.227-0.996,4.634-0.996,7.22
		c-0.122,0.361-0.316,0.573-0.589,0.632c-0.271,0.061-0.407-0.059-0.407-0.361c-0.121-2.888,0.24-5.641,1.087-8.258
		c0.845-2.617,2.066-4.919,3.667-6.904c1.599-1.986,3.545-3.565,5.84-4.738c2.293-1.173,4.889-1.76,7.786-1.76
		c2.475,0,4.557,0.631,6.247,1.895c1.689,1.264,3.018,3.023,3.984,5.28c0.965,2.256,1.599,4.905,1.901,7.942
		c0.301,3.039,0.301,6.333,0,9.883c-0.303,3.551-0.892,7.281-1.766,11.191c-0.876,3.912-1.978,7.822-3.305,11.733
		c1.63-3.73,3.545-7.656,5.749-11.778c2.203-4.121,4.557-8.137,7.062-12.049c2.504-3.911,5.07-7.55,7.696-10.921
		c2.625-3.369,5.206-6.196,7.741-8.484c0.181-0.059,0.347,0,0.498,0.181c0.149,0.18,0.256,0.421,0.316,0.722
		c0.06,0.302,0.075,0.602,0.045,0.902c-0.03,0.302-0.136,0.572-0.316,0.812c-0.846,0.542-1.555,1.069-2.128,1.58
		c-0.574,0.512-1.192,1.189-1.855,2.031c-1.027,1.324-1.736,3.009-2.128,5.054c-0.394,2.046-0.604,4.273-0.634,6.679
		c-0.031,2.407,0.09,4.964,0.362,7.671c0.271,2.708,0.527,5.401,0.77,8.078c0.24,2.678,0.421,5.28,0.543,7.807
		c0.12,2.527,0.06,4.844-0.181,6.95c2.293-3.43,4.919-6.724,7.877-9.883c2.956-3.159,5.764-6.393,8.42-9.702
		c2.655-3.309,4.89-6.799,6.7-10.47c1.811-3.669,2.716-7.762,2.716-12.274c0-1.925-0.271-3.52-0.814-4.783
		c-0.543-1.264-1.328-1.955-2.354-2.076c-0.724-0.059-1.357,0.287-1.901,1.038c-0.543,0.753-1.026,1.58-1.448,2.482
		c-0.604,0.241-0.905,0.031-0.905-0.632c0.663-1.684,1.539-3.173,2.626-4.467c1.086-1.293,2.142-1.94,3.169-1.94
		c1.448,0,2.609,0.722,3.485,2.166c0.874,1.444,1.312,3.19,1.312,5.235c0,3.61-0.483,6.904-1.448,9.882
		c-0.966,2.979-2.249,5.776-3.848,8.394c-1.601,2.618-3.427,5.13-5.479,7.536c-2.053,2.407-4.15,4.799-6.292,7.175
		c-2.144,2.377-4.256,4.814-6.338,7.311c-2.083,2.498-3.97,5.16-5.659,7.987c-0.483,0.722-0.921,1.309-1.312,1.76
		c-0.394,0.451-0.831,0.677-1.313,0.677c-0.303,0-0.498-0.09-0.588-0.271c-0.091-0.18-0.136-0.42-0.136-0.722
		c0-0.3,0.045-0.646,0.136-1.038C45.701,64.637,45.747,64.26,45.747,63.899z"/>
	<path d="M86.58,47.924c0,0.843-0.333,1.625-0.996,2.347c-0.665,0.722-1.57,1.369-2.716,1.94c-1.147,0.573-2.461,1.099-3.938,1.58
		c-1.48,0.482-3.033,0.934-4.663,1.354c-0.062,0.663-0.106,1.324-0.136,1.986c-0.031,0.663-0.046,1.385-0.046,2.166
		c0,1.504,0.331,2.768,0.996,3.791c0.664,1.024,1.599,1.534,2.807,1.534c1.207,0,2.339-0.3,3.396-0.902
		c1.056-0.601,2.006-1.413,2.853-2.437c0.24-0.12,0.421-0.09,0.543,0.09c0.12,0.181,0.12,0.392,0,0.632
		c-1.027,1.385-2.309,2.572-3.848,3.565c-1.54,0.993-3.155,1.489-4.845,1.489c-1.57,0-2.852-0.51-3.848-1.534
		c-0.996-1.022-1.494-2.527-1.494-4.513c0-1.805,0.331-3.714,0.996-5.731c0.663-2.016,1.539-3.866,2.626-5.551
		c1.086-1.684,2.338-3.069,3.757-4.152c1.418-1.083,2.912-1.625,4.482-1.625c1.146,0,2.112,0.406,2.897,1.219
		C86.186,45.984,86.58,46.902,86.58,47.924z M80.604,46.3c-1.39,0-2.626,0.602-3.713,1.805c-1.086,1.204-1.871,3.1-2.354,5.686
		c2.897-0.42,5.025-1.038,6.383-1.851c1.358-0.812,2.037-1.729,2.037-2.752c0-0.842-0.212-1.534-0.634-2.076
		C81.901,46.571,81.328,46.3,80.604,46.3z"/>
	<path d="M126.598,0c1.568,0,2.58,0.722,3.033,2.166c0.452,1.444,0.256,2.978-0.589,4.603c-0.121,0.121-0.271,0.121-0.452,0
		c-0.182-0.12-0.303-0.271-0.362-0.452c0.12-0.722-0.136-1.323-0.77-1.805c-0.634-0.481-1.616-0.722-2.943-0.722
		c-2.596,0-5.16,1.083-7.695,3.249s-4.979,4.979-7.334,8.439c-2.354,3.46-4.543,7.326-6.564,11.597
		c-2.022,4.273-3.772,8.529-5.251,12.771c-1.48,4.242-2.642,8.244-3.486,12.004c-0.846,3.761-1.268,6.814-1.268,9.161
		c0,1.805,0.513,2.708,1.539,2.708c0.725,0,1.434-0.3,2.128-0.902c0.693-0.601,1.494-1.503,2.399-2.708
		c0.182-0.12,0.347-0.104,0.498,0.045c0.15,0.151,0.195,0.347,0.136,0.586c-1.208,1.866-2.535,3.385-3.983,4.558
		c-1.449,1.173-2.687,1.76-3.713,1.76c-0.785,0-1.419-0.316-1.901-0.948c-0.483-0.632-0.724-1.489-0.724-2.572
		c0-1.684,0.301-3.865,0.905-6.543c0.603-2.676,1.448-5.67,2.535-8.98c1.086-3.309,2.399-6.783,3.938-10.424
		c1.539-3.64,3.214-7.234,5.025-10.785c1.811-3.55,3.726-6.95,5.749-10.199c2.021-3.249,4.104-6.106,6.247-8.574
		c2.142-2.466,4.301-4.422,6.474-5.866C122.342,0.722,124.485,0,126.598,0z"/>
	<path d="M114.827,51.264c-0.303,0-0.452-0.149-0.452-0.451c0.482-1.203,0.498-2.256,0.045-3.159
		c-0.452-0.903-1.373-1.354-2.762-1.354c-0.966,0-1.871,0.347-2.716,1.038c-0.846,0.692-1.57,1.655-2.173,2.888
		c-0.604,1.234-1.087,2.678-1.449,4.332c-0.361,1.655-0.543,3.445-0.543,5.37c0,2.949,1.025,4.422,3.078,4.422
		c2.354,0,4.709-1.413,7.062-4.242c0.24-0.12,0.453-0.104,0.634,0.045c0.182,0.151,0.211,0.376,0.091,0.677
		c-1.39,1.746-2.929,3.235-4.618,4.468c-1.69,1.234-3.35,1.85-4.979,1.85c-1.328,0-2.431-0.481-3.305-1.444
		c-0.876-0.961-1.312-2.286-1.312-3.971c0-2.105,0.347-4.211,1.041-6.318c0.693-2.105,1.599-4.001,2.716-5.686
		c1.116-1.684,2.399-3.053,3.849-4.106c1.448-1.052,2.927-1.58,4.437-1.58c1.268,0,2.264,0.302,2.987,0.902
		c0.725,0.603,1.087,1.324,1.087,2.167c0,0.302-0.091,0.663-0.271,1.083c-0.182,0.421-0.408,0.843-0.68,1.263
		c-0.271,0.422-0.574,0.798-0.905,1.128C115.355,50.918,115.068,51.144,114.827,51.264z"/>
	<path d="M131.756,43.953c1.63,0,2.837,0.542,3.622,1.625c0.784,1.083,1.177,2.498,1.177,4.242c0,2.046-0.393,4.092-1.177,6.137
		c-0.785,2.046-1.781,3.896-2.988,5.55c-1.208,1.656-2.521,2.994-3.938,4.017c-1.419,1.024-2.731,1.534-3.938,1.534
		c-1.448,0-2.596-0.571-3.44-1.715c-0.846-1.142-1.268-2.767-1.268-4.874c0-1.684,0.331-3.489,0.996-5.416
		c0.663-1.925,1.554-3.714,2.671-5.37c1.116-1.654,2.384-3.023,3.803-4.106C128.693,44.495,130.186,43.953,131.756,43.953z
		 M126.325,64.26c0.905,0,1.795-0.316,2.671-0.948c0.874-0.632,1.644-1.474,2.309-2.527c0.663-1.052,1.191-2.271,1.584-3.655
		c0.393-1.384,0.589-2.828,0.589-4.333c0-1.805-0.303-3.233-0.905-4.287c-0.604-1.052-1.601-1.58-2.988-1.58
		c-0.905,0-1.781,0.316-2.625,0.948c-0.847,0.632-1.585,1.475-2.219,2.527c-0.634,1.054-1.132,2.288-1.494,3.701
		c-0.362,1.414-0.543,2.903-0.543,4.467C122.703,62.365,123.91,64.26,126.325,64.26z"/>
	<path d="M169.693,48.105c0-1.264-0.453-1.896-1.358-1.896s-1.901,0.451-2.987,1.354c-1.087,0.902-2.219,2.197-3.396,3.881
		c-1.177,1.685-2.354,3.746-3.531,6.182c-1.177,2.437-2.309,5.19-3.396,8.258c-0.121,0.361-0.438,0.647-0.95,0.857
		c-0.514,0.211-1.012,0.316-1.494,0.316c-0.725,0-0.996-0.271-0.814-0.812c0.361-1.083,0.859-2.437,1.493-4.061
		s1.237-3.294,1.812-5.009c0.572-1.715,1.07-3.324,1.493-4.829c0.422-1.503,0.634-2.676,0.634-3.52c0-1.684-0.513-2.527-1.539-2.527
		c-1.57,0-3.562,1.685-5.976,5.054c-2.415,3.371-4.708,8.213-6.881,14.531c-0.122,0.361-0.394,0.647-0.815,0.857
		c-0.423,0.211-0.875,0.316-1.357,0.316c-0.303,0-0.544-0.059-0.725-0.181c-0.181-0.12-0.212-0.33-0.091-0.632
		c0.482-1.323,0.996-2.782,1.539-4.377c0.544-1.594,1.087-3.204,1.63-4.829c0.544-1.625,1.042-3.218,1.494-4.784
		c0.453-1.563,0.829-3.038,1.132-4.422c0.302-1.083,0.15-1.625-0.453-1.625c-0.483,0-1.057,0.332-1.72,0.993
		c-0.665,0.663-1.328,1.444-1.992,2.347c-0.181,0.122-0.362,0.106-0.543-0.045c-0.182-0.149-0.212-0.316-0.091-0.497
		c0.905-1.264,1.916-2.421,3.033-3.475c1.116-1.052,2.248-1.58,3.396-1.58c0.783,0,1.281,0.302,1.494,0.903
		c0.211,0.602,0.226,1.324,0.045,2.166c-0.303,1.324-0.589,2.542-0.86,3.655c-0.271,1.114-0.619,2.242-1.041,3.384
		c1.569-3.008,3.305-5.445,5.206-7.311c1.901-1.864,3.787-2.798,5.659-2.798c0.724,0,1.312,0.271,1.766,0.812
		c0.452,0.542,0.679,1.294,0.679,2.256c0,1.263-0.122,2.527-0.362,3.791c-0.242,1.264-0.604,2.558-1.086,3.881
		c1.811-3.43,3.757-6.077,5.84-7.942c2.082-1.864,4.149-2.798,6.202-2.798c0.663,0,1.206,0.241,1.629,0.722
		c0.422,0.482,0.634,1.114,0.634,1.896c0,1.083-0.226,2.271-0.679,3.565c-0.452,1.294-0.95,2.633-1.494,4.016
		c-0.543,1.385-1.041,2.753-1.493,4.106c-0.453,1.354-0.68,2.633-0.68,3.836c0,1.504,0.453,2.256,1.358,2.256
		c0.965,0,2.293-0.993,3.983-2.979c0.12-0.12,0.256-0.09,0.407,0.09c0.15,0.181,0.166,0.392,0.046,0.632
		c-0.362,0.482-0.815,1.008-1.358,1.58c-0.543,0.572-1.102,1.114-1.675,1.625c-0.574,0.512-1.192,0.934-1.856,1.263
		c-0.665,0.332-1.299,0.497-1.901,0.497c-1.389,0-2.082-1.142-2.082-3.43c0-1.444,0.211-2.902,0.634-4.377
		c0.422-1.474,0.89-2.888,1.403-4.242c0.512-1.354,0.98-2.631,1.403-3.836C169.481,49.971,169.693,48.948,169.693,48.105z"/>
	<path d="M193.504,47.924c0,0.843-0.332,1.625-0.995,2.347c-0.665,0.722-1.57,1.369-2.717,1.94c-1.147,0.573-2.46,1.099-3.938,1.58
		c-1.479,0.482-3.033,0.934-4.663,1.354c-0.061,0.663-0.105,1.324-0.136,1.986c-0.031,0.663-0.045,1.385-0.045,2.166
		c0,1.504,0.331,2.768,0.996,3.791c0.663,1.024,1.599,1.534,2.807,1.534c1.207,0,2.338-0.3,3.396-0.902
		c1.055-0.601,2.006-1.413,2.852-2.437c0.24-0.12,0.422-0.09,0.543,0.09s0.121,0.392,0,0.632c-1.026,1.385-2.309,2.572-3.848,3.565
		s-3.154,1.489-4.844,1.489c-1.57,0-2.853-0.51-3.849-1.534c-0.995-1.022-1.493-2.527-1.493-4.513c0-1.805,0.331-3.714,0.996-5.731
		c0.663-2.016,1.539-3.866,2.625-5.551c1.087-1.684,2.339-3.069,3.758-4.152c1.417-1.083,2.911-1.625,4.481-1.625
		c1.146,0,2.112,0.406,2.897,1.219C193.112,45.984,193.504,46.902,193.504,47.924z M187.529,46.3c-1.389,0-2.625,0.602-3.712,1.805
		c-1.087,1.204-1.872,3.1-2.354,5.686c2.897-0.42,5.025-1.038,6.384-1.851c1.357-0.812,2.037-1.729,2.037-2.752
		c0-0.842-0.212-1.534-0.634-2.076C188.827,46.571,188.253,46.3,187.529,46.3z"/>
</g>
</svg>
